<?xml version="1.0" encoding="UTF-8" standalone="no"?>
<!-- Created with Inkscape (http://www.inkscape.org/) -->

<svg
   xmlns:dc="http://purl.org/dc/elements/1.1/"
   xmlns:cc="http://creativecommons.org/ns#"
   xmlns:rdf="http://www.w3.org/1999/02/22-rdf-syntax-ns#"
   xmlns:svg="http://www.w3.org/2000/svg"
   xmlns="http://www.w3.org/2000/svg"
   xmlns:sodipodi="http://sodipodi.sourceforge.net/DTD/sodipodi-0.dtd"
   xmlns:inkscape="http://www.inkscape.org/namespaces/inkscape"
   width="400"
   height="400"
   id="svg4871"
   version="1.1"
   inkscape:version="0.48.2 r9819"
   sodipodi:docname="for-git-final.svg">
  <defs
     id="defs4873" />
  <sodipodi:namedview
     id="base"
     pagecolor="#ffffff"
     bordercolor="#666666"
     borderopacity="1.0"
     inkscape:pageopacity="0.0"
     inkscape:pageshadow="2"
     inkscape:zoom="0.98994949"
     inkscape:cx="230.81691"
     inkscape:cy="69.551179"
     inkscape:document-units="px"
     inkscape:current-layer="layer1"
     showgrid="false"
     inkscape:window-width="1920"
     inkscape:window-height="1018"
     inkscape:window-x="-8"
     inkscape:window-y="-8"
     inkscape:window-maximized="1" />
  <metadata
     id="metadata4876">
    <rdf:RDF>
      <cc:Work
         rdf:about="">
        <dc:format>image/svg+xml</dc:format>
        <dc:type
           rdf:resource="http://purl.org/dc/dcmitype/StillImage" />
        <dc:title></dc:title>
      </cc:Work>
    </rdf:RDF>
  </metadata>
  <g
     inkscape:label="Layer 1"
     inkscape:groupmode="layer"
     id="layer1"
     transform="translate(0,-652.36215)">
    <path
       style="fill:#461a1c;fill-opacity:1;stroke:#e3dcc9;stroke-width:1.32852542;stroke-opacity:1;display:inline"
       d="m 54.986503,703.62034 c 1.464873,-0.24146 4.449884,-0.20834 4.449884,-0.20834 l 323.214583,0.0886 c 0,0 3.40447,1.22682 4.43818,3.16517 1.67693,3.14448 1.86105,11.85575 1.86105,11.85575 l 0.53476,129.09251 c 9.96862,9.52991 0.50609,10.10438 0.044,13.36327 l -70.33865,-4.04073 0.59484,-27.53354 c 0,0 0.25919,-4.03523 -0.85533,-5.53151 -0.67867,-0.91116 -3.07819,-1.46355 -3.07819,-1.46355 L 7.4181486,822.14411 6.9396565,749.43069 15.679726,741.02484 51.435319,706.35015 c 0,0 2.238981,-2.51352 3.551113,-2.72981 z"
       id="rect3855-7"
       inkscape:connector-curvature="0"
       sodipodi:nodetypes="cccacccccacccccsc"
       inkscape:export-xdpi="20.186543"
       inkscape:export-ydpi="20.186543"
       inkscape:export-filename="Z:\rosa\comission\for-tom\63x64.png" />
    <path
       style="fill:#6f1e22;fill-opacity:1;stroke:#e3dcc9;stroke-width:1.32852542;stroke-opacity:1;display:inline"
       d="m 33.316481,724.05358 c 0,0 -13.214646,12.45628 -18.809869,21.49339 -3.009244,4.86038 17.60592,4.26876 17.60592,4.26876 27.743143,0.28351 50.659562,-0.32338 78.404058,-0.32338 l 0,116.02648 -93.002364,0.29112 c 0,0 -6.592193,-1.06221 -8.6479078,-4.51216 -1.909467,-3.20448 -2.0101001,-12.66266 -2.0101001,-12.66266 L 6.5322218,753.45394 c 0,0 -0.1141052,-2.69761 0.4481191,-4.14282 1.1284075,-3.04839 22.7405681,-22.03889 26.3361401,-25.25754 z"
       id="rect3875-8"
       inkscape:connector-curvature="0"
       sodipodi:nodetypes="csccccacccc"
       inkscape:export-filename="Z:\rosa\comission\for-tom\63x64.png"
       inkscape:export-xdpi="20.186543"
       inkscape:export-ydpi="20.186543" />
    <path
       style="fill:#461a1c;fill-opacity:1;stroke:none;display:inline"
       d="m 322.90971,704.17781 56.49086,-0.29113 c 0,0 4.71863,-0.69311 6.87499,2.61997 3.44919,5.29943 2.65256,21.31913 2.65256,21.31913 l -0.29457,128.08961 5.4742,4.65575 -6.39492,95.61537 -62.98691,0 0.26794,-129.09358 c 0,0 -0.17637,-2.85517 -0.78442,-3.80035 -1.07672,-1.67375 -4.36357,-2.21261 -4.36357,-2.21261 -0.76379,-25.22053 3.06384,-87.0449 3.06384,-116.90216 z"
       id="rect3877-2"
       inkscape:connector-curvature="0"
       sodipodi:nodetypes="ccsccccccacc"
       inkscape:export-filename="Z:\rosa\comission\for-tom\63x64.png"
       inkscape:export-xdpi="20.186543"
       inkscape:export-ydpi="20.186543" />
    <path
       style="fill:#c87470;fill-opacity:1;stroke:#e3dcc9;stroke-width:1.32852542;stroke-opacity:1;display:inline"
       d="m 397.90349,855.04333 c -0.16233,-0.42191 -0.78439,-0.84217 -0.78439,-0.84217 l -5.32861,-4.19541 c 0,0 3.54216,3.30338 2.96943,4.02122 -1.36751,1.71401 -6.4897,1.16778 -6.4897,1.16778 l -286.65374,-0.62888 c 0,0 -0.19969,-50.31625 0.82724,-76.84311 0.18489,-4.77592 0.30565,-7.31759 -1.6984,-9.89847 -2.065411,-2.65987 -5.531029,6.81282 -5.531029,6.81282 L 42.514103,888.04633 c 0,0 -6.602336,12.39499 -6.606153,21.14993 -0.0042,8.75496 6.500851,21.05056 6.500851,21.05056 l 53.601573,117.05308 c 0,0 1.750501,4.9849 3.295827,4.229 1.545329,-0.7558 1.027899,-4.7424 1.027899,-4.7424 l 0.15653,-83.08921 288.78451,0.93501 c 0,0 4.9182,0.85288 7.38339,-1.3492 1.14149,-1.01966 2.1128,-4.06219 2.10851,-6.57363 -0.0639,-42.40244 -0.72056,-72.75379 -0.78562,-100.54262 -5.1e-4,-0.22 0.0463,-0.7993 -0.0784,-1.12354 z"
       id="rect3828-4-7"
       inkscape:connector-curvature="0"
       sodipodi:nodetypes="cccsccsscczcczcccsssac"
       inkscape:export-filename="Z:\rosa\comission\for-tom\63x64.png"
       inkscape:export-xdpi="20.186543"
       inkscape:export-ydpi="20.186543" />
    <path
       style="fill:#6f1e22;fill-opacity:1;stroke:#e3dcc9;stroke-width:1.32852542;stroke-opacity:1;display:inline"
       d="m 105.5003,749.54711 120.48431,-1.2651 c 0,0 6.65202,0.98875 7.72757,-0.6428 1.07554,-1.63153 1.00224,-4.73546 1.00224,-4.73546 l 0.86699,-83.16061 c 0,0 -0.24375,-3.90061 0.68121,-4.32199 1.14588,-0.52205 2.60713,3.78206 2.60713,3.78206 l 58.87759,134.64319 c 0,0 3.53101,8.38269 3.59814,13.13051 0.0691,4.87733 -3.31154,13.72254 -3.31154,13.72254 l -60.21486,136.25172 c 0,0 -0.9645,1.84612 -1.5264,1.50392 -0.87785,-0.53464 -0.68927,-4.22179 -0.68927,-4.22179 l -0.46778,-82.06039 c 0,0 0.65234,-11.50755 -2.81157,-15.41818 -1.28561,-1.45144 -5.55463,-1.72665 -5.55463,-1.72665 l -119.23059,-0.55027 c 0.0388,-43.71343 -1.51507,-66.89871 -1.53595,-104.16512 -1.7e-4,-0.30571 -0.50264,-0.45796 -0.50259,-0.76558 z"
       id="rect3828-8"
       inkscape:connector-curvature="0"
       sodipodi:nodetypes="cczccaccaccaccaccsc"
       inkscape:export-filename="Z:\rosa\comission\for-tom\63x64.png"
       inkscape:export-xdpi="20.186543"
       inkscape:export-ydpi="20.186543" />
    <path
       style="fill:#6f1e22;fill-opacity:1;stroke:none;display:inline"
       d="m 102.64436,752.15693 2.17144,-1.88781 1.7709,-0.0368 37.85587,0.56607 -0.61725,103.04725 -41.52099,0.0496 z"
       id="rect3991-6-5-0"
       inkscape:connector-curvature="0"
       sodipodi:nodetypes="ccccccc"
       inkscape:export-filename="Z:\rosa\comission\for-tom\63x64.png"
       inkscape:export-xdpi="20.186543"
       inkscape:export-ydpi="20.186543" />
    <flowRoot
       transform="matrix(0.78541691,0,0,1.2067364,-14.934945,-295.78464)"
       xml:space="preserve"
       id="flowRoot4116-2"
       style="font-size:24px;font-style:normal;font-variant:normal;font-weight:200;font-stretch:normal;line-height:125%;letter-spacing:0px;word-spacing:0px;fill:#000000;fill-opacity:1;stroke:none;display:inline;font-family:basicl;-inkscape-font-specification:basicl Ultra-Light"
       inkscape:export-filename="Z:\rosa\comission\for-tom\63x64.png"
       inkscape:export-xdpi="20.186543"
       inkscape:export-ydpi="20.186543"><flowRegion
         id="flowRegion4118-0"><rect
           id="rect4120-8"
           width="78"
           height="70.5"
           x="119"
           y="372.86218" /></flowRegion><flowPara
         id="flowPara4122-9">SDFSDFSD</flowPara></flowRoot>    <flowRoot
       transform="matrix(0.78541691,0,0,1.2067364,-14.934945,-295.78464)"
       xml:space="preserve"
       id="flowRoot4124-2"
       style="font-size:24px;font-style:normal;font-variant:normal;font-weight:normal;font-stretch:normal;line-height:125%;letter-spacing:0px;word-spacing:0px;fill:#000000;fill-opacity:1;stroke:none;display:inline;font-family:Adobe Hebrew;-inkscape-font-specification:Adobe Hebrew"
       inkscape:export-filename="Z:\rosa\comission\for-tom\63x64.png"
       inkscape:export-xdpi="20.186543"
       inkscape:export-ydpi="20.186543"><flowRegion
         id="flowRegion4126-8"><rect
           id="rect4128-2"
           width="149.5"
           height="87.5"
           x="95.5"
           y="373.86218"
           style="font-style:normal;font-variant:normal;font-weight:normal;font-stretch:normal;font-family:Adobe Hebrew;-inkscape-font-specification:Adobe Hebrew" /></flowRegion><flowPara
         id="flowPara4130-0" /></flowRoot>    <g
       transform="matrix(3.1912708,0,0,4.3297459,-217.43161,-763.33957)"
       style="font-size:23.79660988px;font-style:normal;font-variant:normal;font-weight:200;font-stretch:normal;line-height:125%;letter-spacing:0px;word-spacing:0px;fill:#e3dcc9;fill-opacity:1;stroke:none;display:inline;font-family:basicl;-inkscape-font-specification:basicl Ultra-Light"
       id="flowRoot4132-5">
      <path
         d="m 115.71203,368.71398 -2.33551,0 -2.26579,-4.85692 c -0.17042,-0.37182 -0.34472,-0.67973 -0.52287,-0.92375 -0.17817,-0.244 -0.36989,-0.43766 -0.57516,-0.58097 -0.20529,-0.1433 -0.42993,-0.24594 -0.67393,-0.30791 -0.24402,-0.062 -0.51707,-0.0929 -0.81917,-0.093 l -0.97604,0 0,6.76251 -2.06826,0 0,-15.1866 4.06681,0 c 0.88307,1e-5 1.6422,0.0968 2.27741,0.29048 0.63518,0.19367 1.15612,0.46479 1.56281,0.81336 0.40667,0.3486 0.7049,0.76884 0.8947,1.26071 0.18977,0.4919 0.28466,1.03608 0.28468,1.63253 -2e-5,0.47254 -0.0697,0.91989 -0.20915,1.34205 -0.13945,0.42218 -0.34666,0.80562 -0.62164,1.15032 -0.27501,0.34472 -0.61584,0.64295 -1.02252,0.8947 -0.40668,0.25176 -0.8734,0.43961 -1.40014,0.56354 0.42604,0.14719 0.78818,0.40475 1.08642,0.7727 0.29822,0.36795 0.60226,0.8579 0.91213,1.46985 z m -3.31154,-11.01522 c -1e-5,-0.81335 -0.2537,-1.42144 -0.76107,-1.82426 -0.50739,-0.40279 -1.22199,-0.60419 -2.14379,-0.60421 l -1.95207,0 0,5.0196 1.6732,0 c 0.48801,10e-6 0.92762,-0.0562 1.31881,-0.16848 0.39118,-0.11231 0.72427,-0.27886 0.99927,-0.49964 0.27499,-0.22076 0.48801,-0.49188 0.63907,-0.81336 0.15104,-0.32146 0.22657,-0.69134 0.22658,-1.10965 z"
         style="font-weight:normal;fill:#e3dcc9;font-family:Consolas;-inkscape-font-specification:Consolas"
         id="path4938"
         inkscape:connector-curvature="0" />
      <path
         d="m 128.31912,362.26519 c -1e-5,0.28662 -0.004,0.52676 -0.0116,0.72041 -0.008,0.19366 -0.0194,0.3757 -0.0349,0.54611 l -8.1917,0 c 0,1.19294 0.33309,2.10893 0.99927,2.748 0.66618,0.63907 1.62672,0.95861 2.88162,0.9586 0.34083,10e-6 0.68167,-0.0136 1.02251,-0.0407 0.34083,-0.0271 0.67005,-0.0639 0.98765,-0.11039 0.31759,-0.0465 0.62163,-0.0988 0.91213,-0.15686 0.29048,-0.0581 0.55966,-0.122 0.80755,-0.19172 l 0,1.66158 c -0.55,0.15492 -1.17164,0.2808 -1.86492,0.37763 -0.6933,0.0968 -1.41177,0.14524 -2.1554,0.14524 -0.99928,0 -1.85912,-0.13556 -2.57952,-0.40668 -0.72041,-0.27112 -1.31106,-0.66424 -1.77196,-1.17937 -0.46091,-0.51513 -0.80175,-1.14645 -1.02252,-1.89397 -0.22077,-0.74751 -0.33115,-1.59379 -0.33115,-2.53885 0,-0.8211 0.11813,-1.59766 0.35439,-2.32969 0.23626,-0.73202 0.58097,-1.37496 1.03413,-1.92883 0.45316,-0.55385 1.00895,-0.99345 1.66739,-1.31881 0.65843,-0.32533 1.40595,-0.488 2.24255,-0.48801 0.81336,10e-6 1.53376,0.12782 2.16122,0.38344 0.62744,0.25564 1.15612,0.61778 1.58605,1.08642 0.42991,0.46866 0.75526,1.03801 0.97604,1.70805 0.22075,0.67007 0.33114,1.41952 0.33115,2.24836 z m -2.10312,-0.29048 c 0.0232,-0.519 -0.0271,-0.99346 -0.15105,-1.42338 -0.12395,-0.42991 -0.31567,-0.7998 -0.57516,-1.10966 -0.25951,-0.30984 -0.58292,-0.55191 -0.97023,-0.72621 -0.38732,-0.17429 -0.8366,-0.26143 -1.34785,-0.26144 -0.44155,10e-6 -0.84435,0.0852 -1.20842,0.25563 -0.36408,0.17042 -0.67781,0.41056 -0.94118,0.7204 -0.26337,0.30986 -0.4764,0.68168 -0.63907,1.11547 -0.16267,0.4338 -0.26337,0.91019 -0.3021,1.42919 z"
         style="font-weight:normal;fill:#e3dcc9;font-family:Consolas;-inkscape-font-specification:Consolas"
         id="path4940"
         inkscape:connector-curvature="0" />
      <path
         d="m 140.81002,365.53026 c -1e-5,0.41055 -0.0697,0.7785 -0.20915,1.10384 -0.13945,0.32535 -0.32923,0.6139 -0.56936,0.86565 -0.24014,0.25176 -0.51901,0.46672 -0.83659,0.64488 -0.31761,0.17817 -0.65651,0.32534 -1.01671,0.44154 -0.36021,0.11619 -0.73009,0.2014 -1.10965,0.25563 -0.37958,0.0542 -0.7514,0.0813 -1.11547,0.0813 -0.79013,0 -1.51634,-0.0349 -2.17864,-0.10457 -0.66231,-0.0697 -1.31107,-0.18204 -1.94626,-0.33697 l 0,-1.85911 c 0.68167,0.19366 1.35947,0.34084 2.0334,0.44154 0.67393,0.10071 1.34398,0.15106 2.01017,0.15106 0.96828,0 1.68481,-0.13169 2.14959,-0.39507 0.46477,-0.26337 0.69716,-0.63906 0.69717,-1.12708 -1e-5,-0.20915 -0.0368,-0.397 -0.11039,-0.56354 -0.0736,-0.16655 -0.20722,-0.32534 -0.40087,-0.4764 -0.19366,-0.15105 -0.49383,-0.30791 -0.9005,-0.47059 -0.40669,-0.16267 -0.96249,-0.34858 -1.66739,-0.55773 -0.52676,-0.15492 -1.01284,-0.33115 -1.45824,-0.52869 -0.44542,-0.19752 -0.8308,-0.43185 -1.15614,-0.70297 -0.32534,-0.27112 -0.58097,-0.58871 -0.76688,-0.9528 -0.18591,-0.36406 -0.27887,-0.79398 -0.27887,-1.28975 0,-0.32534 0.0755,-0.68167 0.22658,-1.06899 0.15105,-0.38731 0.40862,-0.74751 0.7727,-1.08061 0.36407,-0.33308 0.85596,-0.61001 1.47566,-0.83079 0.6197,-0.22076 1.39433,-0.33114 2.32389,-0.33115 0.45703,1e-5 0.96441,0.0252 1.52215,0.0755 0.55772,0.0504 1.13869,0.13751 1.74291,0.26144 l 0,1.80101 c -0.6352,-0.15491 -1.23748,-0.26917 -1.80682,-0.34277 -0.56936,-0.0736 -1.06318,-0.11037 -1.48148,-0.11038 -0.50351,1e-5 -0.92762,0.0387 -1.27233,0.11619 -0.34471,0.0775 -0.62358,0.18398 -0.8366,0.31953 -0.21302,0.13557 -0.36601,0.29437 -0.45896,0.4764 -0.093,0.18205 -0.13944,0.37764 -0.13944,0.58678 0,0.20916 0.0407,0.39895 0.12201,0.56936 0.0813,0.17042 0.23238,0.33503 0.45316,0.49382 0.22076,0.15881 0.52868,0.31761 0.92374,0.4764 0.39506,0.1588 0.91018,0.33116 1.54539,0.51706 0.68941,0.20141 1.27038,0.4125 1.74291,0.63326 0.47252,0.22078 0.85596,0.46672 1.15033,0.73784 0.29435,0.27112 0.50543,0.5771 0.63326,0.91793 0.1278,0.34084 0.19171,0.72816 0.19172,1.16195 z"
         style="font-weight:normal;fill:#e3dcc9;font-family:Consolas;-inkscape-font-specification:Consolas"
         id="path4942"
         inkscape:connector-curvature="0" />
      <path
         d="m 155.19488,368.71398 -2.68409,0 -3.14887,-4.45024 -3.11401,4.45024 -2.61437,0 4.51996,-5.85619 -4.31081,-5.80972 2.59113,0 3.06754,4.4851 3.00943,-4.4851 2.49818,0 -4.38053,5.85619 z"
         style="font-weight:normal;fill:#e3dcc9;font-family:Consolas;-inkscape-font-specification:Consolas"
         id="path4944"
         inkscape:connector-curvature="0" />
    </g>
    <g
       transform="matrix(1.3152469,0,0,2.2302069,-417.34459,-220.09653)"
       style="font-size:24px;font-style:normal;font-variant:normal;font-weight:200;font-stretch:normal;line-height:125%;letter-spacing:0px;word-spacing:0px;fill:#461a1c;fill-opacity:1;stroke:none;display:inline;font-family:basicl;-inkscape-font-specification:basicl Ultra-Light"
       id="flowRoot4144-6">
      <path
         d="m 403.61133,505.92448 c -3e-5,1.59116 -0.12275,3.1146 -0.36817,4.57031 -0.24546,1.45574 -0.63902,2.80991 -1.18066,4.0625 -0.54169,1.25261 -1.24416,2.39096 -2.10742,3.41504 -0.86331,1.02409 -1.92125,1.90007 -3.17383,2.62793 -1.25262,0.72787 -2.70835,1.29069 -4.36719,1.68848 -1.65887,0.39778 -3.54623,0.59668 -5.66211,0.59668 l -7.10937,0 0,-33.18555 8.55664,0 c 5.17967,3e-5 9.04327,1.33304 11.59082,3.99902 2.5475,2.66605 3.82126,6.74124 3.82129,12.22559 z m -4.74805,0.33008 c -2e-5,-2.35285 -0.22007,-4.34178 -0.66016,-5.9668 -0.44012,-1.62498 -1.10874,-2.93682 -2.00585,-3.93555 -0.89716,-0.99867 -2.02281,-1.7223 -3.37696,-2.17089 -1.35418,-0.44854 -2.94532,-0.67283 -4.77344,-0.67286 l -3.88476,0 0,25.4668 3.37695,0 c 7.54946,0 11.3242,-4.24023 11.32422,-12.7207 z"
         style="font-size:52px;font-weight:normal;fill:#461a1c;font-family:Consolas;-inkscape-font-specification:Consolas"
         id="path4929"
         inkscape:connector-curvature="0" />
      <path
         d="m 418.26172,501.04948 -7.54102,0 0,-3.65625 12.00977,0 0,21.81055 7.5918,0 0,3.68164 -20.43946,0 0,-3.68164 8.37891,0 z m 1.54883,-14.3457 c 0.49087,3e-5 0.9479,0.0889 1.37109,0.2666 0.42316,0.17777 0.79133,0.42744 1.10449,0.74902 0.31314,0.32165 0.55858,0.68981 0.73633,1.10449 0.17772,0.41475 0.26658,0.86755 0.2666,1.3584 -2e-5,0.47399 -0.0889,0.92256 -0.2666,1.3457 -0.17775,0.42321 -0.42319,0.79561 -0.73633,1.11719 -0.31316,0.32165 -0.68133,0.57132 -1.10449,0.74903 -0.42319,0.17776 -0.88022,0.26663 -1.37109,0.2666 -0.4909,3e-5 -0.94793,-0.0888 -1.3711,-0.2666 -0.42319,-0.17771 -0.79135,-0.42738 -1.10449,-0.74903 -0.31316,-0.32158 -0.5586,-0.69398 -0.73633,-1.11719 -0.17774,-0.42314 -0.26661,-0.87171 -0.2666,-1.3457 -10e-6,-0.49085 0.0889,-0.94365 0.2666,-1.3584 0.17773,-0.41468 0.42317,-0.78284 0.73633,-1.10449 0.31314,-0.32158 0.6813,-0.57125 1.10449,-0.74902 0.42317,-0.1777 0.8802,-0.26657 1.3711,-0.2666 z"
         style="font-size:52px;font-weight:normal;fill:#461a1c;font-family:Consolas;-inkscape-font-specification:Consolas"
         id="path4931"
         inkscape:connector-curvature="0" />
      <path
         d="m 460.8418,491.12174 c -2.31904,-0.49085 -4.31643,-0.73629 -5.99219,-0.73632 -3.97788,3e-5 -5.96681,2.08206 -5.9668,6.24609 l 0,4.46875 11.17188,0 0,3.68164 -11.17188,0 0,18.10352 -4.49414,0 0,-18.10352 -8.20117,0 0,-3.68164 8.20117,0 0,-4.21484 c -10e-6,-6.78773 3.53775,-10.18161 10.61328,-10.18164 1.7604,3e-5 3.70701,0.20316 5.83985,0.60937 z"
         style="font-size:52px;font-weight:normal;fill:#461a1c;font-family:Consolas;-inkscape-font-specification:Consolas"
         id="path4933"
         inkscape:connector-curvature="0" />
      <path
         d="m 489.48242,491.12174 c -2.31903,-0.49085 -4.31643,-0.73629 -5.99219,-0.73632 -3.97788,3e-5 -5.96681,2.08206 -5.96679,6.24609 l 0,4.46875 11.17187,0 0,3.68164 -11.17187,0 0,18.10352 -4.49414,0 0,-18.10352 -8.20118,0 0,-3.68164 8.20118,0 0,-4.21484 c -10e-6,-6.78773 3.53774,-10.18161 10.61328,-10.18164 1.76039,3e-5 3.707,0.20316 5.83984,0.60937 z"
         style="font-size:52px;font-weight:normal;fill:#461a1c;font-family:Consolas;-inkscape-font-specification:Consolas"
         id="path4935"
         inkscape:connector-curvature="0" />
    </g>
  </g>
</svg>
